# xmcd
#
# Track frame offsets:
#	150
#	10997
#	32362
#	45562
#	54807
#	66332
#	77270
#	88295
#	103820
#	115650
#	130262
#	144387
#	156800
#	169645
#	181450
#	192787
#
# Disc length: 2729 seconds
#
# Revision: 1
# Processed by: cddbd v1.5.1PL0 Copyright (c) Steve Scherf et al.
# Submitted via: CDex 1.50Beta5
#
DISCID=c60aa710
DTITLE=さまざまなアーティスト - THE VERY BEST OF LATIN
DYEAR=1900
DGENRE=Latin
TTITLE0=
TTITLE1=オルフェのサンバ
TTITLE2=シボネイ
TTITLE3=ティコ・ティコ
TTITLE4=ある恋の物語
TTITLE5=マイアミ・ビーチ・ルンバ
TTITLE6=バ・トゥ・カ・ダ
TTITLE7=ラ・マラゲーニャ
TTITLE8=マイ・ショウル
TTITLE9=闘牛士のマンボ
TTITLE10=ソラメンテ・ウナ・ベス
TTITLE11=ベサメ・ムーチョ
TTITLE12=そよ風と私
TTITLE13=ソレソ・ローサ
TTITLE14=南京豆売り
TTITLE15=バイヤ・コン・ディオス
EXTD=
EXTT0=
EXTT1=
EXTT2=
EXTT3=
EXTT4=
EXTT5=
EXTT6=
EXTT7=
EXTT8=
EXTT9=
EXTT10=
EXTT11=
EXTT12=
EXTT13=
EXTT14=
EXTT15=
PLAYORDER=
